<svg xmlns="http://www.w3.org/2000/svg" xmlns:xlink="http://www.w3.org/1999/xlink" version="1.1" id="Layer_1" x="0px" y="0px" viewBox="0 0 512 512" style="enable-background:new 0 0 512 512;" xml:space="preserve">
<style type="text/css">
	.st1{fill:white;}
</style>
<linearGradient id="SVGID_1_" gradientUnits="userSpaceOnUse" x1="256" y1="-2.4968" x2="256" y2="511.3594">
	<stop offset="0" style="stop-color:#58A1FF"/>
	<stop offset="1" style="stop-color:#2571E9"/>
</linearGradient>

<g>
	<path class="st1" d="M358.4,334.1L358.4,334.1c-5.2-5.2-13.5-5.5-19-0.6c-37.5,32.9-69.2,60.3-82.4,70.8   c-19.9-18.7-70.7-63.5-78.1-116.6c0,0,0,0,0,0h179.2c0,0,1.8-13.7,0.9-26.1c0,0,0,0,0,0c-1.3-20-6.7-44.4-23.9-63.7   c-18.7-20.9-47.7-35.9-79-36.7c0,0-1.3,0-2-0.1c-0.5,0-1,0-1.5,0c-14,0-26.2,2.5-36.8,6.7c-34.9,12.9-53.2,43.3-61.1,70.7   c-7.6,26.3-8.3,56.8,1.9,82.2c20.9,52.1,51.5,74.6,90.9,112.5l2.5,2.1c3.6,3.1,8.9,3.1,12.6,0.2l2.5-2   c16.4-12.9,53.3-44.4,92.8-79.1C363.8,349.1,364.1,339.8,358.4,334.1z M252.6,192.3c25.1,0,44.9,8,59.1,23.8   c11.8,13.2,17.8,30,19.3,43.8H181.1C186.4,236,202.9,192.3,252.6,192.3z"/>
	<g>
		<path class="st1" d="M115.7,169.9c-2.2-0.1-4.5-0.7-6.5-2c-5.6-3.7-7.1-11.3-3.4-16.9c31.5-47.3,84.2-75.2,144.4-76.6    c62.3-1.4,120.5,26.5,155.7,74.6c4,5.4,2.8,13.1-2.6,17c-5.4,4-13.1,2.8-17-2.6c-30.5-41.7-81.1-65.8-135.5-64.6    c-52.2,1.1-97.6,25.1-124.7,65.7C123.7,168.1,119.7,170,115.7,169.9z"/>
	</g>
</g>
</svg>